<svg width="304.7" height="78.801" viewBox="0 0 304.7 78.801" xmlns="http://www.w3.org/2000/svg"><g id="svgGroup" stroke-linecap="round" fill-rule="evenodd" font-size="9pt" stroke="#0063eb" stroke-width="0.25mm" fill="#0063eb" style="stroke:#0063eb;stroke-width:0.25mm;fill:#0063eb"><path d="M 0 68.6 L 0 8.9 Q 0 6.6 0.15 5.45 Q 0.276 4.482 0.792 3.337 A 12.001 12.001 0 0 1 1 2.9 A 3.856 3.856 0 0 1 2.677 1.295 Q 4.725 0.2 8.8 0.2 Q 15.1 0.2 16.4 2.9 A 11.691 11.691 0 0 1 16.873 3.89 Q 17.086 4.399 17.21 4.861 A 5.287 5.287 0 0 1 17.35 5.55 A 13.228 13.228 0 0 1 17.423 6.288 Q 17.5 7.347 17.5 9 L 17.5 29.8 A 13.005 13.005 0 0 1 25.773 25.143 A 19.288 19.288 0 0 1 28.9 24.9 A 20.043 20.043 0 0 1 40.452 28.634 A 29.946 29.946 0 0 1 45.25 32.8 Q 52.7 40.7 52.7 51.15 Q 52.7 61.6 45.3 69.45 Q 37.9 77.3 29.4 77.3 A 23.636 23.636 0 0 1 25.006 76.921 Q 22.567 76.458 20.702 75.433 A 10.547 10.547 0 0 1 17.3 72.5 Q 16.5 77.4 8.7 77.4 Q 2.4 77.4 1 74.7 A 12.937 12.937 0 0 1 0.554 73.63 Q 0.363 73.1 0.254 72.622 A 6.131 6.131 0 0 1 0.15 72.05 A 13.228 13.228 0 0 1 0.078 71.312 Q 0 70.253 0 68.6 Z M 248.2 56.9 L 224.5 56.9 Q 224.5 59.436 227.207 61.234 A 10.929 10.929 0 0 0 227.8 61.6 A 14.894 14.894 0 0 0 231.048 63.01 A 11.892 11.892 0 0 0 234.4 63.5 A 45.525 45.525 0 0 0 237.781 63.383 Q 241.231 63.125 243.5 62.3 L 244.6 61.9 A 16.889 16.889 0 0 1 246.005 61.326 Q 247.494 60.8 248.6 60.8 Q 251.8 60.8 254.1 65.3 A 17.743 17.743 0 0 1 254.786 66.91 Q 255.083 67.725 255.237 68.453 A 7.032 7.032 0 0 1 255.4 69.9 Q 255.4 78.581 235.136 78.795 A 98.235 98.235 0 0 1 234.1 78.8 Q 226.7 78.8 220.95 76.25 A 26.214 26.214 0 0 1 216.191 73.549 A 19.851 19.851 0 0 1 212 69.5 Q 205.7 61.4 205.7 51.4 A 31.506 31.506 0 0 1 206.944 42.327 A 24.375 24.375 0 0 1 213.85 31.25 A 28.107 28.107 0 0 1 231.213 23.818 A 37.122 37.122 0 0 1 234.2 23.7 A 30.964 30.964 0 0 1 242.345 24.706 A 20.767 20.767 0 0 1 254.6 33.5 Q 258 38.7 258 44.85 Q 258 48.821 256.728 51.458 A 8.665 8.665 0 0 1 254.95 53.95 A 11.401 11.401 0 0 1 252.378 55.853 A 8.789 8.789 0 0 1 248.2 56.9 Z M 148 42.5 L 141.5 42.1 L 141.5 55.9 A 13.659 13.659 0 0 0 141.56 57.229 Q 141.692 58.572 142.113 59.405 A 3.126 3.126 0 0 0 142.35 59.8 A 2.482 2.482 0 0 0 143.428 60.641 Q 144.265 61 145.55 61 Q 147.487 61 148.677 61.102 A 14.056 14.056 0 0 1 149.15 61.15 Q 150.312 61.29 151.604 61.991 A 10.304 10.304 0 0 1 151.8 62.1 Q 153.739 63.196 154.043 67.207 A 21.117 21.117 0 0 1 154.1 68.8 A 21.779 21.779 0 0 1 153.966 71.322 Q 153.661 73.926 152.662 75.314 A 3.726 3.726 0 0 1 151.3 76.5 A 12.937 12.937 0 0 1 150.23 76.946 Q 149.7 77.137 149.222 77.247 A 6.131 6.131 0 0 1 148.65 77.35 Q 147.694 77.475 146.011 77.496 A 57.041 57.041 0 0 1 145.3 77.5 Q 138.373 77.5 133.664 75.415 A 16.414 16.414 0 0 1 129.5 72.8 A 13.825 13.825 0 0 1 125.761 67.325 Q 124.1 63.113 124.1 56.9 L 124.1 42.1 A 24.408 24.408 0 0 1 121.608 42.358 A 29.886 29.886 0 0 1 120 42.4 A 4.56 4.56 0 0 1 116.581 40.955 A 5.725 5.725 0 0 1 116.35 40.7 A 4.852 4.852 0 0 1 115.524 39.248 Q 114.999 37.853 114.916 35.726 A 21.144 21.144 0 0 1 114.9 34.9 A 54.283 54.283 0 0 1 114.931 32.991 Q 114.997 31.127 115.202 29.887 A 9.638 9.638 0 0 1 115.4 28.95 A 8.923 8.923 0 0 1 115.742 27.92 Q 115.945 27.422 116.19 27.035 A 3.425 3.425 0 0 1 116.8 26.3 A 5.738 5.738 0 0 1 119.564 25.095 A 7.797 7.797 0 0 1 120.8 25 L 124.1 25.4 L 124.1 15.1 Q 124.1 12.8 124.25 11.7 A 4.812 4.812 0 0 1 124.506 10.699 Q 124.674 10.24 124.939 9.751 A 9.504 9.504 0 0 1 125.2 9.3 A 3.428 3.428 0 0 1 126.649 7.903 Q 128.009 7.153 130.408 6.913 A 25.164 25.164 0 0 1 132.9 6.8 A 19.036 19.036 0 0 1 135.612 6.977 Q 138.702 7.424 140.115 8.999 A 4.413 4.413 0 0 1 141 10.5 Q 141.409 11.808 141.483 14.384 A 42.05 42.05 0 0 1 141.5 15.6 L 141.5 25.4 Q 144.869 25.094 146.977 25.022 A 34.736 34.736 0 0 1 148.15 25 Q 150.4 25 151.55 25.15 Q 152.7 25.3 154.2 26.1 Q 156.303 27.152 156.705 31.54 A 24.881 24.881 0 0 1 156.8 33.8 Q 156.8 40.1 154.1 41.5 A 12.937 12.937 0 0 1 153.03 41.946 Q 152.5 42.137 152.022 42.247 A 6.131 6.131 0 0 1 151.45 42.35 A 13.228 13.228 0 0 1 150.712 42.423 Q 149.653 42.5 148 42.5 Z M 192.9 42.5 L 186.4 42.1 L 186.4 55.9 A 13.659 13.659 0 0 0 186.46 57.229 Q 186.592 58.572 187.013 59.405 A 3.126 3.126 0 0 0 187.25 59.8 A 2.482 2.482 0 0 0 188.328 60.641 Q 189.165 61 190.45 61 Q 192.387 61 193.577 61.102 A 14.056 14.056 0 0 1 194.05 61.15 Q 195.212 61.29 196.504 61.991 A 10.304 10.304 0 0 1 196.7 62.1 Q 198.639 63.196 198.943 67.207 A 21.117 21.117 0 0 1 199 68.8 A 21.779 21.779 0 0 1 198.866 71.322 Q 198.561 73.926 197.562 75.314 A 3.726 3.726 0 0 1 196.2 76.5 A 12.937 12.937 0 0 1 195.13 76.946 Q 194.6 77.137 194.122 77.247 A 6.131 6.131 0 0 1 193.55 77.35 Q 192.594 77.475 190.911 77.496 A 57.041 57.041 0 0 1 190.2 77.5 Q 183.273 77.5 178.564 75.415 A 16.414 16.414 0 0 1 174.4 72.8 A 13.825 13.825 0 0 1 170.661 67.325 Q 169 63.113 169 56.9 L 169 42.1 A 24.408 24.408 0 0 1 166.508 42.358 A 29.886 29.886 0 0 1 164.9 42.4 A 4.56 4.56 0 0 1 161.481 40.955 A 5.725 5.725 0 0 1 161.25 40.7 A 4.852 4.852 0 0 1 160.424 39.248 Q 159.899 37.853 159.816 35.726 A 21.144 21.144 0 0 1 159.8 34.9 A 54.283 54.283 0 0 1 159.831 32.991 Q 159.897 31.127 160.102 29.887 A 9.638 9.638 0 0 1 160.3 28.95 A 8.923 8.923 0 0 1 160.642 27.92 Q 160.845 27.422 161.09 27.035 A 3.425 3.425 0 0 1 161.7 26.3 A 5.738 5.738 0 0 1 164.464 25.095 A 7.797 7.797 0 0 1 165.7 25 L 169 25.4 L 169 15.1 Q 169 12.8 169.15 11.7 A 4.812 4.812 0 0 1 169.406 10.699 Q 169.574 10.24 169.839 9.751 A 9.504 9.504 0 0 1 170.1 9.3 A 3.428 3.428 0 0 1 171.549 7.903 Q 172.909 7.153 175.308 6.913 A 25.164 25.164 0 0 1 177.8 6.8 A 19.036 19.036 0 0 1 180.512 6.977 Q 183.602 7.424 185.015 8.999 A 4.413 4.413 0 0 1 185.9 10.5 Q 186.309 11.808 186.383 14.384 A 42.05 42.05 0 0 1 186.4 15.6 L 186.4 25.4 Q 189.769 25.094 191.877 25.022 A 34.736 34.736 0 0 1 193.05 25 Q 195.3 25 196.45 25.15 Q 197.6 25.3 199.1 26.1 Q 201.203 27.152 201.605 31.54 A 24.881 24.881 0 0 1 201.7 33.8 Q 201.7 40.1 199 41.5 A 12.937 12.937 0 0 1 197.93 41.946 Q 197.4 42.137 196.922 42.247 A 6.131 6.131 0 0 1 196.35 42.35 A 13.228 13.228 0 0 1 195.612 42.423 Q 194.553 42.5 192.9 42.5 Z M 59.2 56.4 L 59.2 8.8 Q 59.2 6.5 59.35 5.35 Q 59.466 4.458 59.914 3.355 A 13.967 13.967 0 0 1 60.2 2.7 A 3.856 3.856 0 0 1 61.877 1.095 Q 63.925 0 68 0 Q 72.398 0 74.405 1.404 A 3.88 3.88 0 0 1 75.6 2.7 A 11.045 11.045 0 0 1 76.108 3.78 Q 76.456 4.649 76.55 5.4 A 14.565 14.565 0 0 1 76.623 6.162 Q 76.7 7.247 76.7 8.9 L 76.7 55.2 Q 76.7 58.207 77.119 59.365 A 1.991 1.991 0 0 0 77.3 59.75 A 1.675 1.675 0 0 0 78.008 60.356 Q 78.717 60.7 79.95 60.7 A 44.714 44.714 0 0 1 80.782 60.707 Q 81.912 60.729 82.482 60.812 A 3.382 3.382 0 0 1 82.7 60.85 Q 83.361 60.992 84.289 61.624 A 10.293 10.293 0 0 1 84.4 61.7 Q 86.341 62.962 86.398 68.463 A 32.5 32.5 0 0 1 86.4 68.8 A 30.716 30.716 0 0 1 86.311 71.24 Q 85.978 75.396 84.4 76.5 A 4.607 4.607 0 0 1 83.116 77.087 Q 79.929 78.056 72.173 77.121 A 91.805 91.805 0 0 1 72 77.1 A 25.078 25.078 0 0 1 68.488 76.406 Q 64.26 75.225 62.426 72.669 A 7.126 7.126 0 0 1 62 72 A 16.454 16.454 0 0 1 60.523 68.371 Q 59.495 64.784 59.266 59.54 A 72.039 72.039 0 0 1 59.2 56.4 Z M 282.1 47.8 L 282.1 68.8 Q 282.1 71.1 281.95 72.25 Q 281.8 73.4 281 74.9 Q 279.764 77.042 275.272 77.419 A 24.822 24.822 0 0 1 273.2 77.5 Q 268.921 77.5 266.787 76.149 A 5.171 5.171 0 0 1 266.3 75.8 A 4.805 4.805 0 0 1 264.995 73.889 Q 264.707 73.149 264.577 72.239 A 10.248 10.248 0 0 1 264.5 71.5 L 264.5 68.6 L 264.5 33.5 Q 264.5 31.2 264.65 30.05 Q 264.776 29.082 265.292 27.937 A 12.001 12.001 0 0 1 265.5 27.5 A 3.856 3.856 0 0 1 267.177 25.895 Q 269.225 24.8 273.3 24.8 Q 279.3 24.8 280.8 27.1 A 6.566 6.566 0 0 1 281.59 28.622 A 5.282 5.282 0 0 1 281.9 30.4 A 10.043 10.043 0 0 1 282.256 29.933 Q 282.683 29.405 283.309 28.744 A 31.339 31.339 0 0 1 283.35 28.7 A 5.84 5.84 0 0 1 283.959 28.156 Q 285.024 27.315 287.19 26.116 A 57.607 57.607 0 0 1 287.4 26 Q 290.5 24.3 292.85 24.3 A 36.707 36.707 0 0 1 294.507 24.335 Q 295.8 24.394 296.8 24.55 Q 298.4 24.8 300.3 25.4 Q 302.2 26 303.45 27.45 A 4.32 4.32 0 0 1 304.212 28.784 Q 304.669 30.015 304.698 31.845 A 15.85 15.85 0 0 1 304.7 32.1 A 12.63 12.63 0 0 1 304.283 35.232 Q 303.928 36.619 303.271 38.101 A 23.64 23.64 0 0 1 302.8 39.1 A 8.662 8.662 0 0 1 301.56 40.98 A 5.451 5.451 0 0 1 297.3 42.9 Q 295.5 42.9 293.85 42.1 A 7.069 7.069 0 0 0 292.352 41.586 Q 291.617 41.416 290.749 41.347 A 15.795 15.795 0 0 0 289.5 41.3 A 7.592 7.592 0 0 0 285.344 42.555 A 9.912 9.912 0 0 0 284.45 43.2 A 6.963 6.963 0 0 0 283.019 44.737 A 5.395 5.395 0 0 0 282.1 47.8 Z M 91.9 68.7 L 91.9 33.6 Q 91.9 31.3 92.05 30.15 Q 92.166 29.258 92.614 28.155 A 13.967 13.967 0 0 1 92.9 27.5 A 3.748 3.748 0 0 1 94.496 25.997 Q 95.964 25.211 98.515 24.988 A 25.23 25.23 0 0 1 100.7 24.9 Q 105.5 24.9 107.5 26.6 A 4.629 4.629 0 0 1 108.954 28.789 Q 109.202 29.546 109.275 30.467 A 9.639 9.639 0 0 1 109.3 30.9 A 14.594 14.594 0 0 1 109.344 31.456 Q 109.382 32.088 109.395 32.959 A 60.784 60.784 0 0 1 109.4 33.8 L 109.4 68.8 Q 109.4 71.1 109.25 72.25 Q 109.1 73.4 108.3 74.9 Q 107.249 77.003 102.861 77.405 A 24.881 24.881 0 0 1 100.6 77.5 Q 94.3 77.5 92.9 74.8 Q 92.405 73.739 92.185 72.877 A 6.046 6.046 0 0 1 92.05 72.2 Q 91.937 71.371 91.909 69.803 A 62.372 62.372 0 0 1 91.9 68.7 Z M 106.823 16.615 A 3.816 3.816 0 0 0 108.35 15.05 A 12.061 12.061 0 0 0 108.654 14.419 Q 109.133 13.344 109.25 12.45 Q 109.4 11.3 109.4 9 Q 109.4 7.347 109.323 6.288 A 13.228 13.228 0 0 0 109.25 5.55 A 5.287 5.287 0 0 0 109.11 4.861 Q 108.986 4.399 108.773 3.89 A 11.691 11.691 0 0 0 108.3 2.9 Q 107 0.2 100.7 0.2 Q 96.625 0.2 94.577 1.295 A 3.856 3.856 0 0 0 92.9 2.9 A 12.001 12.001 0 0 0 92.692 3.337 Q 92.176 4.482 92.05 5.45 Q 91.9 6.6 91.9 8.9 Q 91.9 10.553 91.978 11.612 A 13.228 13.228 0 0 0 92.05 12.35 A 5.657 5.657 0 0 0 92.169 12.973 Q 92.395 13.891 92.95 15 A 3.806 3.806 0 0 0 94.36 16.538 A 5.328 5.328 0 0 0 95.6 17.1 Q 96.906 17.513 98.803 17.642 A 27.316 27.316 0 0 0 100.65 17.7 A 27.049 27.049 0 0 0 102.583 17.636 Q 104.423 17.503 105.7 17.1 A 5.633 5.633 0 0 0 106.823 16.615 Z M 20.15 57.2 A 7.911 7.911 0 0 0 25.899 59.892 A 9.869 9.869 0 0 0 26.3 59.9 A 8.397 8.397 0 0 0 32.436 57.366 A 10.391 10.391 0 0 0 32.6 57.2 A 10.042 10.042 0 0 0 34.283 54.907 A 7.87 7.87 0 0 0 35.2 51.2 A 8.748 8.748 0 0 0 33.444 45.957 A 11.488 11.488 0 0 0 32.8 45.15 A 7.885 7.885 0 0 0 27.256 42.433 A 10.916 10.916 0 0 0 26.4 42.4 A 9.227 9.227 0 0 0 23.527 42.827 A 7.507 7.507 0 0 0 20.05 45.2 A 10.569 10.569 0 0 0 18.408 47.818 A 8.609 8.609 0 0 0 17.7 51.25 A 8.347 8.347 0 0 0 19.372 56.245 A 11.18 11.18 0 0 0 20.15 57.2 Z M 224.3 47.8 L 236.9 47.8 A 6.576 6.576 0 0 0 238.322 47.66 Q 240.338 47.212 240.645 45.324 A 4.516 4.516 0 0 0 240.7 44.6 A 4.881 4.881 0 0 0 240.353 42.73 A 4.535 4.535 0 0 0 238.95 40.9 A 5.774 5.774 0 0 0 237.057 39.919 Q 236.227 39.657 235.22 39.559 A 13.088 13.088 0 0 0 233.95 39.5 A 8.64 8.64 0 0 0 230.209 40.386 Q 228.85 41.032 227.5 42.15 A 11.783 11.783 0 0 0 225.882 43.755 Q 225.066 44.753 224.671 45.797 A 5.618 5.618 0 0 0 224.3 47.8 Z" vector-effect="non-scaling-stroke"/></g></svg>